<svg width="153" height="239" viewBox="0 0 153 239" fill="none" xmlns="http://www.w3.org/2000/svg">
<g clip-path="url(#clip0_67_42)">
<path fill-rule="evenodd" clip-rule="evenodd" d="M43.8301 0L79.9116 126.227L96.8822 221H113.916L96.9127 0H43.8301Z" fill="#997659"/>
<path fill-rule="evenodd" clip-rule="evenodd" d="M27.6148 0C30.1325 65.5742 29.1396 101.34 28.5762 107.298C28.0128 113.256 24.8135 153.156 3.01514 223H20.7316C49.6 155.997 59.6776 116.096 62.9881 107.298C66.2997 98.4996 76.0778 62.7336 90.3544 0H27.6148Z" fill="#B28B67"/>
<path fill-rule="evenodd" clip-rule="evenodd" d="M43.0557 0C52.4407 43.435 68.6735 112.768 91.7531 208H116.667C118.507 110.254 110.679 45.9205 97.1233 0H43.0557Z" fill="#083C0A"/>
<path fill-rule="evenodd" clip-rule="evenodd" d="M27.4887 0C29.9542 65.5742 23.5645 130.177 3.77051 209.021H30.3521C59.2737 143.018 80.002 78.7336 94.1693 0H27.4887Z" fill="#083C0A"/>
<path fill-rule="evenodd" clip-rule="evenodd" d="M0.48999 236L1.39117 221.249C1.43027 220.609 2.04373 220.171 2.66162 220.304C11.1988 222.146 22.9736 218 22.9736 218C34.8241 226.522 51.908 230.433 57.9234 231.604C59.0876 231.831 59.8343 233.023 59.5112 234.18L58.1647 239H22.9736H2.44502L0.48999 236Z" fill="#8BC34A"/>
<path fill-rule="evenodd" clip-rule="evenodd" d="M93.0801 236L93.9813 221.249C94.0207 220.609 94.6334 220.171 95.252 220.304C103.789 222.146 115.564 218 115.564 218C127.414 226.522 144.498 230.433 150.513 231.604C151.678 231.831 152.424 233.023 152.101 234.18L150.755 239H115.564H95.0353L93.0801 236Z" fill="#8BC34A"/>
</g>
<defs>
<clipPath id="clip0_67_42">
<rect width="151.687" height="239" fill="white" transform="translate(0.48999)"/>
</clipPath>
</defs>
</svg>
